# xmcd CD database file
#
# Track frame offsets:
#	150
#	11646
#	23384
#	34021
#	40712
#	59474
#	75526
#	86841
#	96061
#	108089
#	119394
#	129833
#	139792
#	152868
#	174899
#	187293
#	197143
#	225752
#	238531
#	248527
#	274564
#	291199
#	306703
#	322807
#	340293
#
# Disc length: 4693 seconds
#
# Revision: 0
# Processed by: cddbd v1.5PL3 Copyright (c) Steve Scherf et al.
# Submitted via: CDex 1.51
#
DISCID=44125319
DTITLE=Rob Hoeke Rhythm and Blues Group - Singles A's and B's                                    Disc 3
DYEAR=2004
DGENRE=Blues
TTITLE0=You are my sunshine
TTITLE1=Dedicated to Marc Thelonius
TTITLE2=Solitary yours
TTITLE3=Let's go out of here
TTITLE4=Lights have been changed
TTITLE5=Lotus 268
TTITLE6=Yellow stone
TTITLE7=Six o'clock blues
TTITLE8=The rain still falling from above
TTITLE9=Boogie loaded
TTITLE10=Freek out
TTITLE11=Milkmen blues
TTITLE12=Blues for Stella
TTITLE13=Future can't change my boogie
TTITLE14=Green feet on the keyboard
TTITLE15=Full speed
TTITLE16=Weightless
TTITLE17=Roaring twenties boogie blues
TTITLE18=Miss Birdies boogie
TTITLE19=Call me the breeze
TTITLE20=Cherry red blues
TTITLE21=Stranger's Lament
TTITLE22=Boogie woogie man
TTITLE23=Down South '79
TTITLE24=Trade mark
EXTD=YEAR: 2004
EXTT0=
EXTT1=
EXTT2=
EXTT3=
EXTT4=
EXTT5=
EXTT6=
EXTT7=
EXTT8=
EXTT9=
EXTT10=
EXTT11=
EXTT12=
EXTT13=
EXTT14=
EXTT15=
EXTT16=
EXTT17=
EXTT18=
EXTT19=
EXTT20=
EXTT21=
EXTT22=
EXTT23=
EXTT24=
PLAYORDER=
